<svg width="39" height="53" viewBox="0 0 39 53" fill="none" xmlns="http://www.w3.org/2000/svg">
<rect width="13.4615" height="30.5992" rx="6.73075" transform="matrix(0 -1 1 -0.00031225 8.12466 16.4712)" fill="white"/>
<path d="M15.5722 29.1153H17.0722V27.6153V8.92414C17.0722 4.8239 13.7483 1.5 9.64802 1.5C5.54778 1.5 2.22388 4.82391 2.22388 8.92414V27.6153V29.1153H3.72388H15.5722Z" fill="#64B899" stroke="#142A52" stroke-width="3"/>
<path d="M15.5721 47.0759C15.5721 50.3477 12.9198 53 9.648 53C6.37619 53 3.72386 50.3477 3.72386 47.0759L3.72386 28.3847H15.5721L15.5721 47.0759Z" fill="#CA2A4B"/>
<path d="M4.73946 22.9078C4.73946 22.5338 5.04258 22.2307 5.4165 22.2307C5.79042 22.2307 6.09354 22.5338 6.09354 22.9078V27.0384V31.169C6.09354 31.543 5.79042 31.8461 5.4165 31.8461C5.04258 31.8461 4.73946 31.543 4.73946 31.169V22.9078Z" fill="white"/>
</svg>
